<svg width="31" height="28" viewBox="0 0 31 28" fill="none" xmlns="http://www.w3.org/2000/svg">
<path d="M6.11535 14.8872C6.11375 14.8786 6.1123 14.8699 6.111 14.8611L4.28086 3.88026C4.10004 2.79536 3.16138 2.00019 2.06151 2.00019H1.60289C1.18869 2.00019 0.852905 1.66441 0.852905 1.2502C0.852905 0.835995 1.18869 0.500214 1.60289 0.500214H2.06151C3.84921 0.500214 5.38137 1.76063 5.73571 3.50017H30.1025C30.6007 3.50017 30.9605 3.97709 30.8236 4.45619L27.8236 14.956C27.7316 15.278 27.4374 15.5 27.1025 15.5H7.73815L7.92479 16.6199C8.10561 17.7048 9.04427 18.4999 10.1441 18.4999H27.1025C27.5167 18.4999 27.8525 18.8357 27.8525 19.2499C27.8525 19.6641 27.5167 19.9999 27.1025 19.9999H10.1441C8.31103 19.9999 6.74659 18.6746 6.44522 16.8665L6.11535 14.8872ZM5.98817 5.00014L7.48815 14H26.5368L29.1082 5.00014H5.98817ZM9.85277 27.4998C8.19594 27.4998 6.85281 26.1567 6.85281 24.4998C6.85281 22.843 8.19594 21.4999 9.85277 21.4999C11.5096 21.4999 12.8527 22.843 12.8527 24.4998C12.8527 26.1567 11.5096 27.4998 9.85277 27.4998ZM9.85277 25.9998C10.6812 25.9998 11.3527 25.3283 11.3527 24.4998C11.3527 23.6714 10.6812 22.9999 9.85277 22.9999C9.02435 22.9999 8.35279 23.6714 8.35279 24.4998C8.35279 25.3283 9.02435 25.9998 9.85277 25.9998ZM23.3526 27.4998C21.6957 27.4998 20.3526 26.1567 20.3526 24.4998C20.3526 22.843 21.6957 21.4999 23.3526 21.4999C25.0094 21.4999 26.3525 22.843 26.3525 24.4998C26.3525 26.1567 25.0094 27.4998 23.3526 27.4998ZM23.3526 25.9998C24.181 25.9998 24.8525 25.3283 24.8525 24.4998C24.8525 23.6714 24.181 22.9999 23.3526 22.9999C22.5241 22.9999 21.8526 23.6714 21.8526 24.4998C21.8526 25.3283 22.5241 25.9998 23.3526 25.9998Z" fill="#6C5D73"/>
</svg>
