<svg width="29" height="28" viewBox="0 0 29 28" fill="none" xmlns="http://www.w3.org/2000/svg">
<path d="M21.9239 20.6769L27.9193 26.6723C28.223 26.976 28.223 27.4685 27.9193 27.7722C27.6155 28.0759 27.1231 28.0759 26.8193 27.7722L20.824 21.7769C18.6301 23.7137 15.7481 24.8889 12.5915 24.8889C5.71863 24.8889 0.147064 19.3173 0.147064 12.4444C0.147064 5.57157 5.71863 0 12.5915 0C19.4644 0 25.036 5.57157 25.036 12.4444C25.036 15.601 23.8607 18.4831 21.9239 20.6769ZM12.5915 23.3333C18.6053 23.3333 23.4804 18.4582 23.4804 12.4444C23.4804 6.43068 18.6053 1.55556 12.5915 1.55556C6.57774 1.55556 1.70262 6.43068 1.70262 12.4444C1.70262 18.4582 6.57774 23.3333 12.5915 23.3333Z" fill="#6C5D73"/>
</svg>
