<svg width="74" height="74" viewBox="0 0 74 74" fill="none" xmlns="http://www.w3.org/2000/svg">
<path d="M32.8583 72.52C32.6363 72.52 32.4259 72.4321 32.2709 72.2772L1.72513 41.7221C1.39907 41.3961 1.39907 40.8688 1.72513 40.5428L40.552 1.72512C40.8781 1.39906 41.4053 1.39906 41.7314 1.72512L56.4204 16.4095L64.1626 8.66262C64.4887 8.33656 65.016 8.33887 65.342 8.66262C65.6681 8.98869 65.6681 9.51594 65.342 9.83969L57.5998 17.5889L72.2795 32.264C72.4345 32.4189 72.5223 32.6317 72.5223 32.8514C72.5223 33.0711 72.4345 33.2838 72.2795 33.4388L33.4457 72.2772C33.2908 72.4321 33.0803 72.52 32.8583 72.52ZM3.48957 41.1324L32.8583 70.5104L70.5105 32.8491L56.4204 18.7636L54.131 21.0553C55.6596 23.1551 55.4769 26.122 53.5853 28.0136C51.5549 30.0417 48.0191 30.0463 45.9841 28.0136C43.8913 25.9185 43.8913 22.5099 45.9841 20.4147C47.8202 18.5809 50.9097 18.3682 52.9586 19.8759L55.2433 17.5866L41.1417 3.48956L3.48957 41.1324ZM49.7835 20.5072C48.7938 20.5072 47.8618 20.8934 47.1611 21.5941C46.4604 22.2925 46.0743 23.2244 46.0743 24.2165C46.0743 25.2062 46.4604 26.1382 47.1611 26.8389C48.5625 28.2402 51.0068 28.2356 52.4059 26.8389C53.1066 26.1382 53.4928 25.2062 53.4928 24.2165C53.4928 23.5112 53.2985 22.8382 52.9355 22.2555L50.3825 24.8108C50.0564 25.1369 49.5291 25.1346 49.2031 24.8108C48.877 24.4847 48.877 23.9575 49.2031 23.6337L51.7584 21.0761C51.1733 20.7038 50.4935 20.5072 49.7835 20.5072ZM42.2031 32.9878L41.0238 31.8107L38.8755 33.9591C36.5051 32.1276 33.2191 32.1599 31.2003 34.1787C30.1203 35.2564 29.5653 36.7248 29.6347 38.3112C29.6902 39.5969 30.1735 40.8226 30.9783 41.8586L25.3288 47.508C24.1286 45.8106 24.1726 43.5629 25.5508 42.1846L24.3738 41.0053C23.2938 42.0852 22.7388 43.5536 22.8082 45.1377C22.866 46.4234 23.3493 47.6491 24.1518 48.6851L21.9202 50.9166L23.0973 52.096L25.3358 49.8575C26.4758 50.7363 27.8148 51.208 29.1375 51.208C30.5666 51.208 31.9588 50.6877 33.0086 49.6401C35.0298 47.619 35.0598 44.3353 33.2283 41.9626L38.8824 36.3086C39.4004 37.037 39.701 37.8811 39.7403 38.7529C39.7889 39.8652 39.405 40.8896 38.6604 41.6343L39.8374 42.8136C40.9174 41.7337 41.4724 40.2653 41.403 38.6812C41.3475 37.3954 40.8619 36.1698 40.0594 35.1338L42.2031 32.9878ZM31.2997 38.2372C31.2511 37.1249 31.635 36.1004 32.3773 35.3558C33.1219 34.6112 34.1556 34.2134 35.2587 34.2782C36.1305 34.3152 36.9723 34.6181 37.7007 35.1338L32.1553 40.6792C31.6396 39.9531 31.3367 39.109 31.2997 38.2372ZM31.8293 48.4631C30.451 49.8413 28.2056 49.8853 26.5059 48.6851L32.0489 43.142C33.2514 44.8394 33.2052 47.0871 31.8293 48.4631Z" fill="url(#paint0_linear_7_239)"/>
<defs>
<linearGradient id="paint0_linear_7_239" x1="37.0015" y1="1.48058" x2="37.0015" y2="72.52" gradientUnits="userSpaceOnUse">
<stop stop-color="#D093EE"/>
<stop offset="1" stop-color="#B964D6"/>
</linearGradient>
</defs>
</svg>
