<svg width="34" height="7" viewBox="0 0 34 7" fill="none" xmlns="http://www.w3.org/2000/svg">
<path d="M3.5 0L4.2858 2.41844H6.8287L4.77145 3.91312L5.55725 6.33156L3.5 4.83688L1.44275 6.33156L2.22855 3.91312L0.171302 2.41844H2.7142L3.5 0Z" fill="#B254CA"/>
<path d="M12.5 0L13.2858 2.41844H15.8287L13.7714 3.91312L14.5572 6.33156L12.5 4.83688L10.4428 6.33156L11.2286 3.91312L9.1713 2.41844H11.7142L12.5 0Z" fill="#B254CA"/>
<path d="M21.5 0L22.2858 2.41844H24.8287L22.7714 3.91312L23.5572 6.33156L21.5 4.83688L19.4428 6.33156L20.2286 3.91312L18.1713 2.41844H20.7142L21.5 0Z" fill="#B254CA"/>
<path d="M30.5 0L31.2858 2.41844H33.8287L31.7714 3.91312L32.5572 6.33156L30.5 4.83688L28.4428 6.33156L29.2286 3.91312L27.1713 2.41844H29.7142L30.5 0Z" fill="#B254CA"/>
</svg>
